<svg xmlns="http://www.w3.org/2000/svg" version="1.1" xmlns:xlink="http://www.w3.org/1999/xlink" width="1500" height="217" viewBox="0 0 1500 217"><svg xml:space="preserve" width="1500" height="217" data-version="2" data-id="lg_7IroO8u87r25oIFKkf" viewBox="0 0 689 217" x="0" y="0"><rect width="100%" height="100%" fill="transparent"></rect><g transform="translate(56.18 51.45)scale(.1808)"><linearGradient id="a" x1="0" x2="1" y1="0" y2="0" gradientUnits="objectBoundingBox"><stop offset="0%" stop-color="#f00b51"></stop><stop offset="100%" stop-color="#730062"></stop></linearGradient><path fill="url(#a)" d="M507.5.09C236.1 19.28 19.28 236.1.09 507.5c-1.5 21.18 15.22 39.21 36.45 39.21h473.64c20.18 0 36.54-16.36 36.54-36.54V36.54c0-21.23-18.03-37.94-39.21-36.45Z" transform="translate(-273.36 -273.35)"></path></g><g transform="rotate(90 59.25 111.28)scale(.1808)"><linearGradient id="b" x1="0" x2="1" y1="0" y2="0" gradientUnits="objectBoundingBox"><stop offset="0%" stop-color="#f00b51"></stop><stop offset="100%" stop-color="#730062"></stop></linearGradient><path fill="url(#b)" d="M507.5.09C236.1 19.28 19.28 236.1.09 507.5c-1.5 21.18 15.22 39.21 36.45 39.21h473.64c20.18 0 36.54-16.36 36.54-36.54V36.54c0-21.23-18.03-37.94-39.21-36.45Z" transform="translate(-273.36 -273.35)"></path></g><g transform="translate(168.26 163.86)scale(.1808)"><linearGradient id="c" x1="0" x2="1" y1="0" y2="0" gradientUnits="objectBoundingBox"><stop offset="0%" stop-color="#f00b51"></stop><stop offset="100%" stop-color="#730062"></stop></linearGradient><path fill="url(#c)" d="M507.5.09C236.1 19.28 19.28 236.1.09 507.5c-1.5 21.18 15.22 39.21 36.45 39.21h473.64c20.18 0 36.54-16.36 36.54-36.54V36.54c0-21.23-18.03-37.94-39.21-36.45Z" transform="translate(-273.36 -273.35)"></path></g><g transform="rotate(-90 110.86 54.68)scale(.1808)"><linearGradient id="d" x1="0" x2="1" y1="0" y2="0" gradientUnits="objectBoundingBox"><stop offset="0%" stop-color="#f00b51"></stop><stop offset="100%" stop-color="#730062"></stop></linearGradient><path fill="url(#d)" d="M507.5.09C236.1 19.28 19.28 236.1.09 507.5c-1.5 21.18 15.22 39.21 36.45 39.21h473.64c20.18 0 36.54-16.36 36.54-36.54V36.54c0-21.23-18.03-37.94-39.21-36.45Z" transform="translate(-273.36 -273.35)"></path></g><g transform="translate(267.25 153.51)"><linearGradient id="e" x1="-.01" x2="6.88" y1="0" y2="0" gradientUnits="objectBoundingBox"><stop offset="0%" stop-color="#f00b51"></stop><stop offset="100%" stop-color="#730062"></stop></linearGradient><path fill="url(#e)" d="M406.37 455.67q0 2.78-.7 5-.71 2.22-1.86 3.92-1.16 1.7-2.71 2.89-1.56 1.2-3.22 1.95-1.66.76-3.38 1.12-1.71.37-3.23.37h-36.24v-9.4h36.24q2.71 0 4.21-1.59t1.5-4.26q0-1.3-.4-2.39-.4-1.08-1.14-1.88-.74-.79-1.8-1.22-1.07-.44-2.37-.44h-21.61q-2.28 0-4.91-.81-2.64-.81-4.9-2.62-2.26-1.81-3.76-4.73-1.5-2.93-1.5-7.16t1.5-7.14q1.5-2.9 3.76-4.73 2.26-1.82 4.9-2.64 2.63-.81 4.91-.81h31.98v9.4h-31.98q-2.67 0-4.17 1.62-1.5 1.63-1.5 4.3 0 2.71 1.5 4.28 1.5 1.57 4.17 1.57h21.68q1.52.04 3.22.42 1.69.38 3.37 1.17 1.69.8 3.2 2.01 1.52 1.21 2.69 2.91 1.18 1.7 1.87 3.9.68 2.21.68 4.99" transform="translate(-380.48 -445.01)"></path></g><rect width="51.78" height="51.82" x="-25.89" y="-25.91" fill="none" rx="0" ry="0" transform="translate(267.75 154.01)"></rect><g transform="translate(305.71 153.51)"><linearGradient id="f" x1="-2.84" x2="18.36" y1="0" y2="0" gradientUnits="objectBoundingBox"><stop offset="0%" stop-color="#f00b51"></stop><stop offset="100%" stop-color="#730062"></stop></linearGradient><path fill="url(#f)" d="M423.64 470.92h-9.39V419.1h9.39Z" transform="translate(-418.94 -445.01)"></path></g><rect width="9.39" height="51.82" x="-4.7" y="-25.91" fill="none" rx="0" ry="0" transform="translate(306.21 154.01)"></rect><g transform="translate(351.55 153.44)"><linearGradient id="g" x1="-1.1" x2="4.27" y1="0" y2="0" gradientUnits="objectBoundingBox"><stop offset="0%" stop-color="#f00b51"></stop><stop offset="100%" stop-color="#730062"></stop></linearGradient><path fill="url(#g)" d="M494.93 470.92h-9.46v-30.86l-16.66 29.3q-.61 1.12-1.72 1.7-1.1.58-2.36.58-1.23 0-2.3-.58-1.06-.58-1.68-1.7l-16.73-29.3v30.86h-9.39v-47.81q0-1.62.96-2.89.95-1.26 2.51-1.7.76-.18 1.51-.12.76.05 1.47.32.7.27 1.28.76.58.49.98 1.17l21.39 37.19 21.39-37.19q.83-1.37 2.29-1.95 1.46-.57 3.05-.18 1.52.44 2.5 1.7.97 1.27.97 2.89Z" transform="translate(-464.78 -444.94)"></path></g><rect width="60.3" height="53.39" x="-30.15" y="-26.7" fill="none" rx="0" ry="0" transform="translate(352.05 153.94)"></rect><g transform="translate(418.36 153.51)"><linearGradient id="h" x1="-2.51" x2="4.1" y1="0" y2="0" gradientUnits="objectBoundingBox"><stop offset="0%" stop-color="#f00b51"></stop><stop offset="100%" stop-color="#730062"></stop></linearGradient><path fill="url(#h)" d="M557.48 440.78q0 3.22-.8 5.75-.79 2.53-2.15 4.46-1.35 1.93-3.12 3.3-1.77 1.38-3.7 2.24-1.94.87-3.91 1.27-1.97.4-3.7.4h-21.25v-9.4h21.25q1.81-.14 3.27-.74 1.46-.59 2.51-1.61 1.05-1.01 1.63-2.44.57-1.42.57-3.23v-4.26q-.18-1.77-.75-3.26-.58-1.48-1.58-2.52-.99-1.05-2.4-1.65-1.41-.59-3.25-.59h-21.17q-1.88 0-2.86.97-.97.98-.97 2.82v38.63h-9.4v-38.63q0-3.61 1.32-6.14t3.29-4.09q1.97-1.55 4.28-2.25 2.31-.71 4.26-.71h21.25q3.18 0 5.71.81 2.53.82 4.46 2.17 1.93 1.36 3.29 3.13 1.35 1.77 2.24 3.7.88 1.93 1.28 3.9t.4 3.71Z" transform="translate(-531.59 -445.01)"></path></g><rect width="51.78" height="51.82" x="-25.89" y="-25.91" fill="none" rx="0" ry="0" transform="translate(418.86 154.01)"></rect><g transform="translate(476.06 153.51)"><linearGradient id="i" x1="-3.86" x2="3.51" y1="0" y2="0" gradientUnits="objectBoundingBox"><stop offset="0%" stop-color="#f00b51"></stop><stop offset="100%" stop-color="#730062"></stop></linearGradient><path fill="url(#i)" d="M613.09 470.92h-42.86q-1.01 0-1.87-.37-.87-.36-1.5-.99-.64-.63-1-1.5t-.36-1.88V419.1h9.4v42.42h38.19Z" transform="translate(-589.3 -445.01)"></path></g><rect width="47.59" height="51.82" x="-23.8" y="-25.91" fill="none" rx="0" ry="0" transform="translate(476.56 154.01)"></rect><g transform="translate(529.85 153.51)"><linearGradient id="j" x1="-4.72" x2="2.41" y1="0" y2="0" gradientUnits="objectBoundingBox"><stop offset="0%" stop-color="#f00b51"></stop><stop offset="100%" stop-color="#730062"></stop></linearGradient><path fill="url(#j)" d="M662.37 449.74h-29.66v-9.47h29.66Zm4.23 21.18h-33.89q-1.95 0-4.27-.69-2.31-.69-4.28-2.26-1.97-1.57-3.29-4.08-1.31-2.51-1.31-6.16v-33.9q0-.97.36-1.84.36-.87.99-1.52t1.5-1.01q.87-.36 1.88-.36h42.31v9.4h-37.65v29.23q0 1.84.98 2.82.97.97 2.85.97h33.82Z" transform="translate(-643.08 -445.01)"></path></g><rect width="47.04" height="51.82" x="-23.52" y="-25.91" fill="none" rx="0" ry="0" transform="translate(530.35 154.01)"></rect><g transform="translate(592.59 153.44)"><linearGradient id="k" x1="-4.49" x2=".89" y1="0" y2="0" gradientUnits="objectBoundingBox"><stop offset="0%" stop-color="#f00b51"></stop><stop offset="100%" stop-color="#730062"></stop></linearGradient><path fill="url(#k)" d="M735.98 470.92h-9.47v-30.86l-16.66 29.3q-.61 1.12-1.71 1.7-1.11.58-2.37.58-1.23 0-2.3-.58-1.06-.58-1.68-1.7l-16.73-29.3v30.86h-9.39v-47.81q0-1.62.96-2.89.95-1.26 2.51-1.7.76-.18 1.52-.12.75.05 1.46.32.7.27 1.28.76.58.49.98 1.17l21.39 37.19 21.39-37.19q.83-1.37 2.29-1.95 1.47-.57 3.06-.18 1.51.44 2.49 1.7.98 1.27.98 2.89Z" transform="translate(-705.83 -444.94)"></path></g><rect width="60.31" height="53.39" x="-30.16" y="-26.7" fill="none" rx="0" ry="0" transform="translate(593.09 153.94)"></rect><g transform="translate(657.45 153.51)"><linearGradient id="l" x1="-7.17" x2=".16" y1="0" y2="0" gradientUnits="objectBoundingBox"><stop offset="0%" stop-color="#f00b51"></stop><stop offset="100%" stop-color="#730062"></stop></linearGradient><path fill="url(#l)" d="M794.47 470.92h-42.85q-1.01 0-1.88-.37-.87-.36-1.5-.99t-.99-1.5q-.36-.87-.36-1.88V419.1h9.39v42.42h38.19Z" transform="translate(-770.68 -445.01)"></path></g><rect width="47.58" height="51.82" x="-23.79" y="-25.91" fill="none" rx="0" ry="0" transform="translate(657.95 154.01)"></rect></svg></svg>